<svg width="39" height="43" viewBox="0 0 39 43" fill="none" xmlns="http://www.w3.org/2000/svg">
<g filter="url(#filter0_d)">
<rect x="1.45833" y="1.45833" width="32.0833" height="32.0833" rx="12.3958" fill="#FF9900"/>
<rect x="1.45833" y="1.45833" width="32.0833" height="32.0833" rx="12.3958" stroke="white" stroke-width="2.91667"/>
<rect x="1.45833" y="1.45833" width="32.0833" height="32.0833" rx="12.3958" stroke="#FF9900" stroke-width="2.91667"/>
<path d="M25.7657 12.2393C25.4533 11.9202 24.9468 11.9202 24.6343 12.2393L15.0498 22.0277L11.3657 18.2653C11.0533 17.9462 10.5468 17.9462 10.2343 18.2653C9.92189 18.5843 9.92189 19.1016 10.2343 19.4207L14.4841 23.7608C14.7964 24.0798 15.3033 24.0796 15.6155 23.7608L25.7657 13.3947C26.0781 13.0757 26.0781 12.5584 25.7657 12.2393Z" fill="white"/>
</g>
<defs>
<filter id="filter0_d" x="-4" y="0" width="43" height="43" filterUnits="userSpaceOnUse" color-interpolation-filters="sRGB">
<feFlood flood-opacity="0" result="BackgroundImageFix"/>
<feColorMatrix in="SourceAlpha" type="matrix" values="0 0 0 0 0 0 0 0 0 0 0 0 0 0 0 0 0 0 127 0"/>
<feOffset dy="4"/>
<feGaussianBlur stdDeviation="2"/>
<feColorMatrix type="matrix" values="0 0 0 0 0 0 0 0 0 0 0 0 0 0 0 0 0 0 0.25 0"/>
<feBlend mode="normal" in2="BackgroundImageFix" result="effect1_dropShadow"/>
<feBlend mode="normal" in="SourceGraphic" in2="effect1_dropShadow" result="shape"/>
</filter>
</defs>
</svg>
